<svg xmlns="http://www.w3.org/2000/svg" viewBox="0 0 541.2 53.9"><style type="text/css">
    .st0{fill:#2C2D2C;}
    .st1{fill:#EB938F;}
    .st2{fill:#F3CF83;}
    .st3{fill:#AFD4AE;}
    .st4{fill:#FFFFFF;}
    .st5{fill:#F05441;}
    .st6{fill:#AADA91;}
</style><path class="st4" d="M62.2 27v-0.1c0-11.4 8.6-20.8 20.7-20.8 6.2 0 10.3 1.8 13.8 4.5 0.8 0.6 1.4 1.6 1.4 2.8 0 2-1.5 3.4-3.5 3.4 -1 0-1.7-0.3-2.1-0.7 -2.7-2.2-5.7-3.6-9.6-3.6 -7.6 0-13.3 6.3-13.3 14.2v0.1c0 7.9 5.6 14.2 13.3 14.2 4.3 0 7.1-1.4 10-3.8 0.5-0.5 1.3-0.8 2.1-0.8 1.8 0 3.3 1.5 3.3 3.3 0 1.1-0.5 2-1.1 2.5 -3.8 3.3-8.1 5.4-14.6 5.4C70.9 47.7 62.2 38.5 62.2 27z"/><path class="st4" d="M103.3 32v-0.1c0-8.7 6.9-15.8 16.2-15.8s16.1 7.1 16.1 15.7v0.1c0 8.6-6.9 15.8-16.2 15.8C110.1 47.7 103.3 40.6 103.3 32zM128.7 32v-0.1c0-5.3-3.8-9.8-9.3-9.8 -5.6 0-9.1 4.4-9.1 9.6v0.1c0 5.3 3.9 9.7 9.2 9.7C125.1 41.6 128.7 37.2 128.7 32z"/><path class="st4" d="M142.7 19.8c0-1.9 1.5-3.5 3.4-3.5s3.5 1.6 3.5 3.5v1.5c2-2.8 4.8-5.3 9.5-5.3 6.8 0 10.8 4.6 10.8 11.6v16.2c0 2-1.5 3.4-3.4 3.4s-3.5-1.5-3.5-3.4V29.8c0-4.7-2.3-7.4-6.5-7.4 -4 0-6.8 2.8-6.8 7.5v14c0 2-1.5 3.4-3.5 3.4 -1.9 0-3.4-1.5-3.4-3.4V19.8z"/><path class="st4" d="M179.8 22.6h-1.2c-1.6 0-2.9-1.3-2.9-2.9s1.3-2.9 2.9-2.9h1.2V14.6c0-3.3 0.9-5.8 2.5-7.5 1.6-1.6 3.8-2.4 6.8-2.4 1.4 0 2.5 0.1 3.5 0.3 1.3 0.2 2.4 1.3 2.4 2.9 0 1.6-1.3 2.9-2.9 2.9 -0.4-0.1-1-0.1-1.4-0.1 -2.6 0-4 1.4-4 4.6v1.7h5.4c1.7 0 2.9 1.3 2.9 2.9s-1.3 2.9-2.9 2.9h-5.3v21.2c0 1.9-1.5 3.4-3.5 3.4 -1.9 0-3.4-1.5-3.4-3.4V22.6zM199.7 8.5c0-2.1 1.7-3.4 4-3.4 2.2 0 4 1.3 4 3.4v0.3c0 2.1-1.7 3.4-4 3.4 -2.2 0-4-1.4-4-3.4V8.5zM200.2 19.8c0-1.9 1.5-3.5 3.4-3.5s3.5 1.6 3.5 3.5v24c0 2-1.5 3.4-3.5 3.4 -1.9 0-3.4-1.5-3.4-3.4V19.8z"/><path class="st4" d="M246 43.8c0 2-1.5 3.4-3.4 3.4 -1.9 0-3.5-1.5-3.5-3.4v-1.9c-2.2 3.2-5.4 5.7-10.3 5.7 -7.1 0-14.1-5.7-14.1-15.7v-0.1c0-10 6.8-15.7 14.1-15.7 5 0 8.2 2.5 10.3 5.3V8.2c0-1.9 1.6-3.4 3.4-3.4 2 0 3.5 1.5 3.5 3.4V43.8zM221.7 31.8v0.1c0 5.9 4 9.7 8.7 9.7 4.7 0 8.8-3.9 8.8-9.7v-0.1c0-5.8-4.1-9.7-8.8-9.7C225.7 22.1 221.7 25.7 221.7 31.8z"/><path class="st4" d="M268.6 47.7c-8.8 0-15.5-6.4-15.5-15.7v-0.1c0-8.7 6.1-15.8 14.8-15.8 9.6 0 14.4 7.9 14.4 14.9 0 2-1.5 3.3-3.3 3.3h-19c0.8 4.9 4.3 7.7 8.7 7.7 2.9 0 5.2-1 7.2-2.6 0.5-0.4 1-0.6 1.8-0.6 1.6 0 2.8 1.2 2.8 2.8 0 0.9-0.4 1.6-0.9 2.1C276.8 46.1 273.3 47.7 268.6 47.7zM275.5 29.7c-0.5-4.5-3.1-8-7.7-8 -4.2 0-7.2 3.3-7.9 8H275.5z"/><path class="st4" d="M288.8 19.8c0-1.9 1.5-3.5 3.4-3.5s3.5 1.6 3.5 3.5v1.5c2-2.8 4.8-5.3 9.5-5.3 6.8 0 10.8 4.6 10.8 11.6v16.2c0 2-1.5 3.4-3.4 3.4s-3.5-1.5-3.5-3.4V29.8c0-4.7-2.3-7.4-6.5-7.4 -4 0-6.8 2.8-6.8 7.5v14c0 2-1.5 3.4-3.5 3.4 -1.9 0-3.4-1.5-3.4-3.4V19.8z"/><path class="st4" d="M325.8 38.6V22.6h-1.1c-1.7 0-3-1.3-3-3 0-1.7 1.3-3 3-3h1.2V11.5c0-1.9 1.6-3.4 3.5-3.4 1.9 0 3.4 1.6 3.4 3.4v5.2h5.5c1.7 0 3 1.3 3 3 0 1.7-1.4 3-3 3h-5.4V37.5c0 2.7 1.4 3.8 3.7 3.8 0.8 0 1.5-0.2 1.7-0.2 1.6 0 2.9 1.3 2.9 2.9 0 1.3-0.9 2.3-1.8 2.7 -1.5 0.5-2.9 0.8-4.8 0.8C329.5 47.5 325.8 45.3 325.8 38.6z"/><path class="st5" d="M349.6 8.1c0-0.8 0.7-1.5 1.5-1.5 0.8 0 1.5 0.7 1.5 1.5v36.2h22.4c0.8 0 1.4 0.6 1.4 1.4s-0.6 1.4-1.4 1.4H351.1c-0.8 0-1.5-0.7-1.5-1.5V8.1z"/><path class="st5" d="M382.1 38.5v-0.1c0-6.1 5.2-9.5 12.8-9.5 4.1 0 6.9 0.5 9.7 1.3v-1.3c0-5.9-3.6-8.9-9.6-8.9 -3.2 0-5.9 0.8-8.3 2 -0.2 0.1-0.5 0.2-0.6 0.2 -0.7 0-1.3-0.6-1.3-1.3 0-0.7 0.5-1.1 0.8-1.3 3-1.3 5.9-2.2 9.6-2.2 4 0 7.1 1.1 9.2 3.2 2 2 3 4.7 3 8.3v17c0 0.9-0.6 1.4-1.4 1.4 -0.8 0-1.4-0.6-1.4-1.4v-3.7c-2 2.8-5.6 5.6-11.2 5.6C387.9 47.7 382.1 44.6 382.1 38.5zM404.6 36v-3.3c-2.5-0.6-5.7-1.3-9.9-1.3 -6.2 0-9.6 2.8-9.6 6.8v0.1c0 4.3 4 6.7 8.5 6.7C399.5 45 404.6 41.3 404.6 36z"/><path class="st5" d="M415.1 18.9c0-0.8 0.6-1.4 1.4-1.4 0.8 0 1.4 0.6 1.4 1.4v7.1c2.5-5.7 7.6-8.8 11.8-8.8 0.9 0 1.5 0.7 1.5 1.6 0 0.8-0.6 1.5-1.5 1.6 -6.2 0.6-11.8 5.2-11.8 14.6v10.8c0 0.8-0.6 1.4-1.4 1.4 -0.8 0-1.4-0.6-1.4-1.4V18.9z"/><path class="st5" d="M434.2 38.5v-0.1c0-6.1 5.2-9.5 12.8-9.5 4.1 0 6.9 0.5 9.7 1.3v-1.3c0-5.9-3.6-8.9-9.6-8.9 -3.2 0-5.9 0.8-8.3 2 -0.2 0.1-0.5 0.2-0.6 0.2 -0.7 0-1.3-0.6-1.3-1.3 0-0.7 0.5-1.1 0.8-1.3 3-1.3 5.9-2.2 9.6-2.2 4 0 7.1 1.1 9.2 3.2 2 2 3 4.7 3 8.3v17c0 0.9-0.6 1.4-1.4 1.4 -0.8 0-1.4-0.6-1.4-1.4v-3.7c-2 2.8-5.6 5.6-11.2 5.6C440.1 47.7 434.2 44.6 434.2 38.5zM456.8 36v-3.3c-2.5-0.6-5.7-1.3-9.9-1.3 -6.2 0-9.6 2.8-9.6 6.8v0.1c0 4.3 4 6.7 8.5 6.7C451.6 45 456.8 41.3 456.8 36z"/><path class="st5" d="M478.7 47.4h-0.1c-0.8 0-1.3-0.5-1.6-1.2l-11.8-26.4c-0.1-0.3-0.2-0.6-0.2-0.9 0-0.8 0.6-1.4 1.5-1.4 0.9 0 1.2 0.5 1.5 1.2l10.7 25.2 10.9-25.3c0.2-0.6 0.6-1 1.4-1 0.8 0 1.4 0.6 1.4 1.4 0 0.3-0.1 0.5-0.2 0.8l-11.8 26.5C479.9 46.9 479.5 47.4 478.7 47.4z"/><path class="st5" d="M511.3 47.7c-7.7 0-14.3-6.1-14.3-15.3v-0.1c0-8.5 6-15.3 13.9-15.3 8.2 0 13.4 6.8 13.4 15.2 0 0.7-0.7 1.3-1.4 1.3H499.9c0.5 7.3 5.7 11.5 11.5 11.5 4.2 0 7.1-1.7 9.5-4 0.2-0.2 0.5-0.4 0.9-0.4 0.8 0 1.4 0.6 1.4 1.3 0 0.3-0.1 0.6-0.5 1C519.8 45.8 516.5 47.7 511.3 47.7zM521.2 31c-0.4-5.9-3.8-11.4-10.5-11.4 -5.8 0-10.3 4.9-10.8 11.4H521.2z"/><path class="st5" d="M531.8 6.3c0-0.8 0.6-1.4 1.4-1.4s1.4 0.6 1.4 1.4v39.5c0 0.9-0.6 1.4-1.4 1.4 -0.8 0-1.4-0.6-1.4-1.4V6.3z"/><circle class="st4" cx="15.7" cy="10.1" r="2.2"/><circle class="st4" cx="23.7" cy="10.1" r="2.2"/><circle class="st4" cx="31.7" cy="10.1" r="2.2"/><circle class="st4" cx="39.7" cy="10.1" r="2.2"/><circle class="st4" cx="15.7" cy="18.1" r="2.2"/><circle class="st4" cx="23.7" cy="18.1" r="2.2"/><circle class="st4" cx="31.7" cy="18.1" r="2.2"/><circle class="st4" cx="39.7" cy="18.1" r="2.2"/><circle class="st4" cx="15.7" cy="26.1" r="2.2"/><circle class="st4" cx="23.7" cy="26.1" r="2.2"/><circle class="st4" cx="7.7" cy="10.1" r="2.2"/><circle class="st4" cx="7.7" cy="18.1" r="2.2"/><circle class="st4" cx="7.7" cy="26.1" r="2.2"/><path class="st6" d="M38.8 39H8.5c-1.7 0-3 1.4-3 3 0 1.7 1.4 3 3 3h30.3c1.7 0 3-1.4 3-3C41.9 40.4 40.5 39 38.8 39z"/></svg>